<mxfile host="app.diagrams.net" modified="2023-04-13T13:10:02.555Z" agent="Mozilla/5.0 (Windows NT 10.0; Win64; x64) AppleWebKit/537.36 (KHTML, like Gecko) Chrome/111.0.0.0 Safari/537.36" etag="hXyPBCt8KclZhL6hzbsY" version="21.1.7" type="device">
  <diagram name="Pagina-1" id="iqsI_M5H5K48zxISpeU9">
    <mxGraphModel dx="1742" dy="943" grid="1" gridSize="10" guides="1" tooltips="1" connect="1" arrows="1" fold="1" page="1" pageScale="1" pageWidth="827" pageHeight="1169" background="#E6E6E6" math="0" shadow="0">
      <root>
        <mxCell id="0" />
        <mxCell id="1" parent="0" />
        <mxCell id="wg8FtdOyDk8lmfBGWDfO-1" value="Router" style="verticalAlign=top;verticalLabelPosition=bottom;labelPosition=center;align=center;html=1;outlineConnect=0;gradientDirection=north;strokeWidth=2;shape=mxgraph.networks.router;fillColor=#1ba1e2;strokeColor=#006EAF;fontColor=#000000;fontSize=14;fontStyle=1;labelBackgroundColor=none;" vertex="1" parent="1">
          <mxGeometry x="330" y="310" width="180" height="60" as="geometry" />
        </mxCell>
        <mxCell id="wg8FtdOyDk8lmfBGWDfO-3" value="Switch" style="fontColor=#000000;verticalAlign=top;verticalLabelPosition=bottom;labelPosition=center;align=center;html=1;outlineConnect=0;fillColor=#e3c800;strokeColor=#B09500;gradientDirection=north;strokeWidth=2;shape=mxgraph.networks.switch;fontStyle=1;fontSize=14;" vertex="1" parent="1">
          <mxGeometry x="80" y="600" width="100" height="30" as="geometry" />
        </mxCell>
        <mxCell id="wg8FtdOyDk8lmfBGWDfO-4" value="&lt;font color=&quot;#000000&quot;&gt;Switch&lt;br&gt;&lt;/font&gt;" style="verticalAlign=top;verticalLabelPosition=bottom;labelPosition=center;align=center;html=1;outlineConnect=0;fillColor=#60a917;strokeColor=#2D7600;gradientDirection=north;strokeWidth=2;shape=mxgraph.networks.switch;fontColor=#ffffff;fontSize=14;fontStyle=1" vertex="1" parent="1">
          <mxGeometry x="364" y="600" width="100" height="30" as="geometry" />
        </mxCell>
        <mxCell id="wg8FtdOyDk8lmfBGWDfO-5" value="&lt;font color=&quot;#000000&quot;&gt;Switch&lt;/font&gt;" style="fontColor=#ffffff;verticalAlign=top;verticalLabelPosition=bottom;labelPosition=center;align=center;html=1;outlineConnect=0;fillColor=#e51400;strokeColor=#B20000;gradientDirection=north;strokeWidth=2;shape=mxgraph.networks.switch;fontSize=14;fontStyle=1" vertex="1" parent="1">
          <mxGeometry x="647.5" y="600" width="100" height="30" as="geometry" />
        </mxCell>
        <mxCell id="wg8FtdOyDk8lmfBGWDfO-7" value="" style="fontColor=#000000;verticalAlign=top;verticalLabelPosition=bottom;labelPosition=center;align=center;html=1;outlineConnect=0;fillColor=#e3c800;strokeColor=#B09500;gradientDirection=north;strokeWidth=2;shape=mxgraph.networks.pc;" vertex="1" parent="1">
          <mxGeometry x="50" y="660" width="74" height="60" as="geometry" />
        </mxCell>
        <mxCell id="wg8FtdOyDk8lmfBGWDfO-8" value="" style="fontColor=#000000;verticalAlign=top;verticalLabelPosition=bottom;labelPosition=center;align=center;html=1;outlineConnect=0;fillColor=#e3c800;strokeColor=#B09500;gradientDirection=north;strokeWidth=2;shape=mxgraph.networks.pc;" vertex="1" parent="1">
          <mxGeometry x="50" y="740" width="74" height="60" as="geometry" />
        </mxCell>
        <mxCell id="wg8FtdOyDk8lmfBGWDfO-9" value="" style="fontColor=#000000;verticalAlign=top;verticalLabelPosition=bottom;labelPosition=center;align=center;html=1;outlineConnect=0;fillColor=#e3c800;strokeColor=#B09500;gradientDirection=north;strokeWidth=2;shape=mxgraph.networks.pc;" vertex="1" parent="1">
          <mxGeometry x="145" y="740" width="74" height="60" as="geometry" />
        </mxCell>
        <mxCell id="wg8FtdOyDk8lmfBGWDfO-10" value="" style="fontColor=#000000;verticalAlign=top;verticalLabelPosition=bottom;labelPosition=center;align=center;html=1;outlineConnect=0;fillColor=#e3c800;strokeColor=#B09500;gradientDirection=north;strokeWidth=2;shape=mxgraph.networks.pc;" vertex="1" parent="1">
          <mxGeometry x="145" y="660" width="74" height="60" as="geometry" />
        </mxCell>
        <mxCell id="wg8FtdOyDk8lmfBGWDfO-11" value="&lt;b&gt;NAT Gateway&lt;/b&gt;" style="fontColor=#000000;verticalAlign=top;verticalLabelPosition=bottom;labelPosition=center;align=center;html=1;outlineConnect=0;fillColor=#e3c800;strokeColor=#B09500;gradientDirection=north;strokeWidth=2;shape=mxgraph.networks.nas_filer;fontSize=14;" vertex="1" parent="1">
          <mxGeometry x="80" y="460" width="100" height="35" as="geometry" />
        </mxCell>
        <mxCell id="wg8FtdOyDk8lmfBGWDfO-12" value="" style="fontColor=#000000;verticalAlign=top;verticalLabelPosition=bottom;labelPosition=center;align=center;html=1;outlineConnect=0;fillColor=#e3c800;strokeColor=#B09500;gradientDirection=north;strokeWidth=2;shape=mxgraph.networks.comm_link;" vertex="1" parent="1">
          <mxGeometry x="115" y="520" width="30" height="80" as="geometry" />
        </mxCell>
        <mxCell id="wg8FtdOyDk8lmfBGWDfO-13" value="Internet Gateway" style="html=1;outlineConnect=0;fillColor=#1ba1e2;strokeColor=#006EAF;gradientDirection=north;strokeWidth=2;shape=mxgraph.networks.cloud;fontColor=#000000;fontSize=14;fontStyle=1" vertex="1" parent="1">
          <mxGeometry x="324" y="150" width="179" height="100" as="geometry" />
        </mxCell>
        <mxCell id="wg8FtdOyDk8lmfBGWDfO-14" value="" style="html=1;outlineConnect=0;fillColor=#e3c800;strokeColor=#B09500;gradientDirection=north;strokeWidth=2;shape=mxgraph.networks.comm_link_edge;html=1;rounded=0;entryX=0.1;entryY=1;entryDx=0;entryDy=0;entryPerimeter=0;" edge="1" parent="1" target="wg8FtdOyDk8lmfBGWDfO-1">
          <mxGeometry width="100" height="100" relative="1" as="geometry">
            <mxPoint x="160" y="460" as="sourcePoint" />
            <mxPoint x="260" y="360" as="targetPoint" />
          </mxGeometry>
        </mxCell>
        <mxCell id="wg8FtdOyDk8lmfBGWDfO-15" value="" style="html=1;outlineConnect=0;fillColor=#60a917;strokeColor=#2D7600;gradientDirection=north;strokeWidth=2;shape=mxgraph.networks.comm_link_edge;html=1;rounded=0;" edge="1" parent="1" source="wg8FtdOyDk8lmfBGWDfO-4">
          <mxGeometry width="100" height="100" relative="1" as="geometry">
            <mxPoint x="410" y="600" as="sourcePoint" />
            <mxPoint x="420" y="400" as="targetPoint" />
          </mxGeometry>
        </mxCell>
        <mxCell id="wg8FtdOyDk8lmfBGWDfO-16" value="" style="html=1;outlineConnect=0;fillColor=#e51400;strokeColor=#B20000;gradientDirection=north;strokeWidth=2;shape=mxgraph.networks.comm_link_edge;html=1;rounded=0;exitX=0.9;exitY=1;exitDx=0;exitDy=0;exitPerimeter=0;" edge="1" parent="1" source="wg8FtdOyDk8lmfBGWDfO-1" target="wg8FtdOyDk8lmfBGWDfO-5">
          <mxGeometry width="100" height="100" relative="1" as="geometry">
            <mxPoint x="360" y="530" as="sourcePoint" />
            <mxPoint x="560" y="620" as="targetPoint" />
          </mxGeometry>
        </mxCell>
        <mxCell id="wg8FtdOyDk8lmfBGWDfO-17" value="" style="fontColor=#ffffff;verticalAlign=top;verticalLabelPosition=bottom;labelPosition=center;align=center;html=1;outlineConnect=0;fillColor=#1ba1e2;strokeColor=#006EAF;gradientDirection=north;strokeWidth=2;shape=mxgraph.networks.comm_link;" vertex="1" parent="1">
          <mxGeometry x="404" y="250" width="30" height="60" as="geometry" />
        </mxCell>
        <mxCell id="wg8FtdOyDk8lmfBGWDfO-18" value="" style="fontColor=#ffffff;verticalAlign=top;verticalLabelPosition=bottom;labelPosition=center;align=center;html=1;outlineConnect=0;fillColor=#e51400;strokeColor=#B20000;gradientDirection=north;strokeWidth=2;shape=mxgraph.networks.mail_server;" vertex="1" parent="1">
          <mxGeometry x="652.5" y="660" width="95" height="105" as="geometry" />
        </mxCell>
        <mxCell id="wg8FtdOyDk8lmfBGWDfO-19" value="" style="verticalAlign=top;verticalLabelPosition=bottom;labelPosition=center;align=center;html=1;outlineConnect=0;fillColor=#60a917;strokeColor=#2D7600;gradientDirection=north;strokeWidth=2;shape=mxgraph.networks.mainframe;fontColor=#ffffff;" vertex="1" parent="1">
          <mxGeometry x="374" y="660" width="80" height="100" as="geometry" />
        </mxCell>
        <mxCell id="wg8FtdOyDk8lmfBGWDfO-22" value="&lt;ul style=&quot;font-size: 14px;&quot;&gt;&lt;li style=&quot;font-size: 14px;&quot;&gt;&lt;b style=&quot;background-color: initial;&quot;&gt;Private subnet for 30 hosts with internet via NAT&lt;/b&gt;&lt;/li&gt;&lt;li style=&quot;font-size: 14px;&quot;&gt;&lt;span style=&quot;background-color: initial;&quot;&gt;10.0.1.0/27&lt;/span&gt;&lt;br&gt;&lt;/li&gt;&lt;/ul&gt;" style="text;strokeColor=none;fillColor=none;html=1;whiteSpace=wrap;verticalAlign=middle;overflow=hidden;fontSize=14;" vertex="1" parent="1">
          <mxGeometry x="30" y="330" width="180" height="150" as="geometry" />
        </mxCell>
        <mxCell id="wg8FtdOyDk8lmfBGWDfO-23" value="&lt;div&gt;&lt;b&gt;Private subnet for 6 hosts&lt;/b&gt;&lt;/div&gt;&lt;div&gt;&lt;span style=&quot;background-color: initial;&quot;&gt;10.0.1.64/29&lt;/span&gt;&lt;/div&gt;" style="text;strokeColor=none;fillColor=none;html=1;whiteSpace=wrap;verticalAlign=middle;overflow=hidden;fontSize=14;align=center;" vertex="1" parent="1">
          <mxGeometry x="495" y="550" width="170" height="80" as="geometry" />
        </mxCell>
        <mxCell id="wg8FtdOyDk8lmfBGWDfO-24" value="&lt;ul style=&quot;font-size: 14px;&quot;&gt;&lt;li&gt;&lt;b&gt;Private subnet for 30 hosts with no internet&lt;/b&gt;&lt;/li&gt;&lt;li&gt;10.0.1.32/27&lt;/li&gt;&lt;/ul&gt;" style="text;strokeColor=none;fillColor=none;html=1;whiteSpace=wrap;verticalAlign=middle;overflow=hidden;labelPosition=center;verticalLabelPosition=middle;align=center;" vertex="1" parent="1">
          <mxGeometry x="258" y="495" width="146" height="115" as="geometry" />
        </mxCell>
        <mxCell id="wg8FtdOyDk8lmfBGWDfO-28" value="&lt;div style=&quot;&quot;&gt;&lt;b&gt;Public subnet for 6 hosts&lt;/b&gt;&lt;/div&gt;&lt;div style=&quot;&quot;&gt;&lt;span style=&quot;background-color: initial;&quot;&gt;31.186.200.192/29&lt;/span&gt;&lt;/div&gt;" style="text;strokeColor=none;fillColor=none;html=1;whiteSpace=wrap;verticalAlign=middle;overflow=hidden;fontSize=14;align=center;" vertex="1" parent="1">
          <mxGeometry x="530" y="130" width="135" height="70" as="geometry" />
        </mxCell>
        <mxCell id="wg8FtdOyDk8lmfBGWDfO-36" style="edgeStyle=orthogonalEdgeStyle;rounded=0;orthogonalLoop=1;jettySize=auto;html=1;" edge="1" parent="1" source="wg8FtdOyDk8lmfBGWDfO-32" target="wg8FtdOyDk8lmfBGWDfO-13">
          <mxGeometry relative="1" as="geometry" />
        </mxCell>
        <mxCell id="wg8FtdOyDk8lmfBGWDfO-37" style="edgeStyle=orthogonalEdgeStyle;rounded=0;orthogonalLoop=1;jettySize=auto;html=1;exitX=0.5;exitY=1;exitDx=0;exitDy=0;exitPerimeter=0;" edge="1" parent="1" source="wg8FtdOyDk8lmfBGWDfO-32" target="wg8FtdOyDk8lmfBGWDfO-5">
          <mxGeometry relative="1" as="geometry" />
        </mxCell>
        <mxCell id="wg8FtdOyDk8lmfBGWDfO-32" value="" style="fontColor=#ffffff;verticalAlign=top;verticalLabelPosition=bottom;labelPosition=center;align=center;html=1;outlineConnect=0;fillColor=#1ba1e2;strokeColor=#006EAF;gradientDirection=north;strokeWidth=2;shape=mxgraph.networks.comm_link;rotation=0;" vertex="1" parent="1">
          <mxGeometry x="671.77" y="165" width="51.45" height="70" as="geometry" />
        </mxCell>
      </root>
    </mxGraphModel>
  </diagram>
</mxfile>
